<?xml version="1.0" encoding="UTF-8" standalone="no"?>
<!DOCTYPE svg PUBLIC "-//W3C//DTD SVG 1.1//EN"
 "http://www.w3.org/Graphics/SVG/1.1/DTD/svg11.dtd">
<!-- Generated by graphviz version 2.43.0 (0)
 -->
<!-- Title: Net::NetSession::HandleRelayText Pages: 1 -->
<svg width="342pt" height="64pt"
 viewBox="0.00 0.00 342.00 64.00" xmlns="http://www.w3.org/2000/svg" xmlns:xlink="http://www.w3.org/1999/xlink">
<g id="graph0" class="graph" transform="scale(1 1) rotate(0) translate(4 60)">
<title>Net::NetSession::HandleRelayText</title>
<!-- Node1 -->
<g id="Node000001" class="node">
<title>Node1</title>
<g id="a_Node000001"><a xlink:title=" ">
<polygon fill="#999999" stroke="#666666" points="183,-37 0,-37 0,-18 183,-18 183,-37"/>
<text text-anchor="middle" x="91.5" y="-25" font-family="Helvetica,sans-Serif" font-size="10.00">Net::NetSession::HandleRelayText</text>
</a>
</g>
</g>
<!-- Node2 -->
<g id="Node000002" class="node">
<title>Node2</title>
<g id="a_Node000002"><a xlink:href="namespaceNet.html#ac7230cee12e9cc480a4470e1ea265a72" target="_top" xlink:title=" ">
<polygon fill="white" stroke="#666666" points="321,-56 232,-56 232,-37 321,-37 321,-56"/>
<text text-anchor="middle" x="276.5" y="-44" font-family="Helvetica,sans-Serif" font-size="10.00">Net::ToPayload</text>
</a>
</g>
</g>
<!-- Node1&#45;&gt;Node2 -->
<g id="edge1_Node000001_Node000002" class="edge">
<title>Node1&#45;&gt;Node2</title>
<g id="a_edge1_Node000001_Node000002"><a xlink:title=" ">
<path fill="none" stroke="#63b8ff" d="M183.2,-36.92C196.26,-38.27 209.35,-39.63 221.4,-40.88"/>
<polygon fill="#63b8ff" stroke="#63b8ff" points="221.38,-44.4 231.69,-41.95 222.11,-37.44 221.38,-44.4"/>
</a>
</g>
</g>
<!-- Node3 -->
<g id="Node000003" class="node">
<title>Node3</title>
<g id="a_Node000003"><a xlink:href="namespaceNet.html#a732389a92b74189d45a28571d682d3ba" target="_top" xlink:title=" ">
<polygon fill="white" stroke="#666666" points="334,-19 219,-19 219,0 334,0 334,-19"/>
<text text-anchor="middle" x="276.5" y="-7" font-family="Helvetica,sans-Serif" font-size="10.00">Net::ToRelayUnicast</text>
</a>
</g>
</g>
<!-- Node1&#45;&gt;Node3 -->
<g id="edge2_Node000001_Node000003" class="edge">
<title>Node1&#45;&gt;Node3</title>
<g id="a_edge2_Node000001_Node000003"><a xlink:title=" ">
<path fill="none" stroke="#63b8ff" d="M183.2,-18.58C191.82,-17.73 200.46,-16.88 208.8,-16.06"/>
<polygon fill="#63b8ff" stroke="#63b8ff" points="209.19,-19.54 218.8,-15.08 208.5,-12.57 209.19,-19.54"/>
</a>
</g>
</g>
</g>
</svg>
