<?xml version="1.0" encoding="UTF-8" standalone="no"?>
<!DOCTYPE svg PUBLIC "-//W3C//DTD SVG 1.1//EN"
 "http://www.w3.org/Graphics/SVG/1.1/DTD/svg11.dtd">
<!-- Generated by graphviz version 2.43.0 (0)
 -->
<!-- Title: OLakitu::func_800797AC Pages: 1 -->
<svg width="565pt" height="121pt"
 viewBox="0.00 0.00 565.00 121.00" xmlns="http://www.w3.org/2000/svg" xmlns:xlink="http://www.w3.org/1999/xlink">
<g id="graph0" class="graph" transform="scale(1 1) rotate(0) translate(4 117)">
<title>OLakitu::func_800797AC</title>
<!-- Node1 -->
<g id="Node000001" class="node">
<title>Node1</title>
<g id="a_Node000001"><a xlink:title=" ">
<polygon fill="#999999" stroke="#666666" points="136,-57 0,-57 0,-38 136,-38 136,-57"/>
<text text-anchor="middle" x="68" y="-45" font-family="Helvetica,sans-Serif" font-size="10.00">OLakitu::func_800797AC</text>
</a>
</g>
</g>
<!-- Node2 -->
<g id="Node000002" class="node">
<title>Node2</title>
<g id="a_Node000002"><a xlink:href="Game_8cpp.html#a3416a195a0c7be6ec3783bbf4842dc3e" target="_top" xlink:title=" ">
<polygon fill="white" stroke="#666666" points="259,-94 177,-94 177,-75 259,-75 259,-94"/>
<text text-anchor="middle" x="218" y="-82" font-family="Helvetica,sans-Serif" font-size="10.00">CM_GetProps</text>
</a>
</g>
</g>
<!-- Node1&#45;&gt;Node2 -->
<g id="edge1_Node000001_Node000002" class="edge">
<title>Node1&#45;&gt;Node2</title>
<g id="a_edge1_Node000001_Node000002"><a xlink:title=" ">
<path fill="none" stroke="#63b8ff" d="M107.11,-57.03C125.94,-61.74 148.86,-67.47 168.89,-72.47"/>
<polygon fill="#63b8ff" stroke="#63b8ff" points="168.21,-75.91 178.76,-74.94 169.91,-69.12 168.21,-75.91"/>
</a>
</g>
</g>
<!-- Node6 -->
<g id="Node000006" class="node">
<title>Node6</title>
<g id="a_Node000006"><a xlink:href="update__objects_8c.html#a2c88cc32dff07c6af5fe74d00b9fa279" target="_top" xlink:title=" ">
<polygon fill="white" stroke="#666666" points="264,-57 172,-57 172,-38 264,-38 264,-57"/>
<text text-anchor="middle" x="218" y="-45" font-family="Helvetica,sans-Serif" font-size="10.00">func_800722A4</text>
</a>
</g>
</g>
<!-- Node1&#45;&gt;Node6 -->
<g id="edge7_Node000001_Node000006" class="edge">
<title>Node1&#45;&gt;Node6</title>
<g id="a_edge7_Node000001_Node000006"><a xlink:title=" ">
<path fill="none" stroke="#63b8ff" d="M136.07,-47.5C144.66,-47.5 153.38,-47.5 161.75,-47.5"/>
<polygon fill="#63b8ff" stroke="#63b8ff" points="161.77,-51 171.77,-47.5 161.77,-44 161.77,-51"/>
</a>
</g>
</g>
<!-- Node7 -->
<g id="Node000007" class="node">
<title>Node7</title>
<g id="a_Node000007"><a xlink:href="update__objects_8c.html#abdebd086b5ff081f83af3d9205f39cd3" target="_top" xlink:title=" ">
<polygon fill="white" stroke="#666666" points="252,-20 184,-20 184,-1 252,-1 252,-20"/>
<text text-anchor="middle" x="218" y="-8" font-family="Helvetica,sans-Serif" font-size="10.00">init_object</text>
</a>
</g>
</g>
<!-- Node1&#45;&gt;Node7 -->
<g id="edge8_Node000001_Node000007" class="edge">
<title>Node1&#45;&gt;Node7</title>
<g id="a_edge8_Node000001_Node000007"><a xlink:title=" ">
<path fill="none" stroke="#63b8ff" d="M107.11,-37.97C127.43,-32.89 152.5,-26.62 173.57,-21.36"/>
<polygon fill="#63b8ff" stroke="#63b8ff" points="174.7,-24.68 183.55,-18.86 173,-17.89 174.7,-24.68"/>
</a>
</g>
</g>
<!-- Node3 -->
<g id="Node000003" class="node">
<title>Node3</title>
<g id="a_Node000003"><a xlink:href="classWorld.html#a1a4dacc6aea0b846df998be0afc239f7" target="_top" xlink:title=" ">
<polygon fill="white" stroke="#666666" points="557,-113 464,-113 464,-94 557,-94 557,-113"/>
<text text-anchor="middle" x="510.5" y="-101" font-family="Helvetica,sans-Serif" font-size="10.00">World::GetTrack</text>
</a>
</g>
</g>
<!-- Node2&#45;&gt;Node3 -->
<g id="edge2_Node000002_Node000003" class="edge">
<title>Node2&#45;&gt;Node3</title>
<g id="a_edge2_Node000002_Node000003"><a xlink:title=" ">
<path fill="none" stroke="#63b8ff" d="M250.21,-94.08C265.13,-98.17 283.32,-102.47 300,-104.5 351.87,-110.81 411.49,-109.72 453.84,-107.55"/>
<polygon fill="#63b8ff" stroke="#63b8ff" points="454.15,-111.04 463.95,-107 453.77,-104.05 454.15,-111.04"/>
</a>
</g>
</g>
<!-- Node4 -->
<g id="Node000004" class="node">
<title>Node4</title>
<g id="a_Node000004"><a xlink:href="Game_8cpp.html#a0967ca61e9f768c9e278fef7b8030085" target="_top" xlink:title=" ">
<polygon fill="white" stroke="#666666" points="393.5,-95 334.5,-95 334.5,-76 393.5,-76 393.5,-95"/>
<text text-anchor="middle" x="364" y="-83" font-family="Helvetica,sans-Serif" font-size="10.00">GetTrack</text>
</a>
</g>
</g>
<!-- Node2&#45;&gt;Node4 -->
<g id="edge3_Node000002_Node000004" class="edge">
<title>Node2&#45;&gt;Node4</title>
<g id="a_edge3_Node000002_Node000004"><a xlink:title=" ">
<path fill="none" stroke="#63b8ff" d="M259.11,-84.78C279.38,-84.92 303.87,-85.09 323.98,-85.23"/>
<polygon fill="#63b8ff" stroke="#63b8ff" points="324.03,-88.73 334.06,-85.3 324.08,-81.73 324.03,-88.73"/>
</a>
</g>
</g>
<!-- Node5 -->
<g id="Node000005" class="node">
<title>Node5</title>
<g id="a_Node000005"><a xlink:href="Game_8cpp.html#ae2fa844b3cb1021ecbc357f8ed2ad8cc" target="_top" xlink:title=" ">
<polygon fill="white" stroke="#666666" points="541.5,-76 479.5,-76 479.5,-57 541.5,-57 541.5,-76"/>
<text text-anchor="middle" x="510.5" y="-64" font-family="Helvetica,sans-Serif" font-size="10.00">GetWorld</text>
</a>
</g>
</g>
<!-- Node2&#45;&gt;Node5 -->
<g id="edge6_Node000002_Node000005" class="edge">
<title>Node2&#45;&gt;Node5</title>
<g id="a_edge6_Node000002_Node000005"><a xlink:title=" ">
<path fill="none" stroke="#63b8ff" d="M256.66,-74.95C270.23,-71.94 285.71,-69.02 300,-67.5 358.52,-61.28 426.75,-62.53 469.04,-64.28"/>
<polygon fill="#63b8ff" stroke="#63b8ff" points="469.07,-67.79 479.21,-64.73 469.38,-60.79 469.07,-67.79"/>
</a>
</g>
</g>
<!-- Node4&#45;&gt;Node3 -->
<g id="edge4_Node000004_Node000003" class="edge">
<title>Node4&#45;&gt;Node3</title>
<g id="a_edge4_Node000004_Node000003"><a xlink:title=" ">
<path fill="none" stroke="#63b8ff" d="M393.55,-89.06C410.8,-91.2 433.36,-94.02 454,-96.59"/>
<polygon fill="#63b8ff" stroke="#63b8ff" points="453.59,-100.06 463.95,-97.83 454.46,-93.12 453.59,-100.06"/>
</a>
</g>
</g>
<!-- Node4&#45;&gt;Node5 -->
<g id="edge5_Node000004_Node000005" class="edge">
<title>Node4&#45;&gt;Node5</title>
<g id="a_edge5_Node000004_Node000005"><a xlink:title=" ">
<path fill="none" stroke="#63b8ff" d="M393.55,-81.75C415.11,-78.91 445,-74.98 469.03,-71.82"/>
<polygon fill="#63b8ff" stroke="#63b8ff" points="469.81,-75.25 479.27,-70.48 468.9,-68.31 469.81,-75.25"/>
</a>
</g>
</g>
<!-- Node8 -->
<g id="Node000008" class="node">
<title>Node8</title>
<g id="a_Node000008"><a xlink:href="update__objects_8c.html#af20e3f3c403dd4fbea56e358997e515a" target="_top" xlink:title=" ">
<polygon fill="white" stroke="#666666" points="428,-19 300,-19 300,0 428,0 428,-19"/>
<text text-anchor="middle" x="364" y="-7" font-family="Helvetica,sans-Serif" font-size="10.00">set_object_timer_state</text>
</a>
</g>
</g>
<!-- Node7&#45;&gt;Node8 -->
<g id="edge9_Node000007_Node000008" class="edge">
<title>Node7&#45;&gt;Node8</title>
<g id="a_edge9_Node000007_Node000008"><a xlink:title=" ">
<path fill="none" stroke="#63b8ff" d="M252.04,-10.27C263.35,-10.19 276.5,-10.1 289.71,-10.01"/>
<polygon fill="#63b8ff" stroke="#63b8ff" points="289.82,-13.51 299.8,-9.94 289.77,-6.51 289.82,-13.51"/>
</a>
</g>
</g>
</g>
</svg>
