<?xml version="1.0" encoding="UTF-8" standalone="no"?>
<!DOCTYPE svg PUBLIC "-//W3C//DTD SVG 1.1//EN"
 "http://www.w3.org/Graphics/SVG/1.1/DTD/svg11.dtd">
<!-- Generated by graphviz version 2.43.0 (0)
 -->
<!-- Title: CM_TickObjects Pages: 1 -->
<svg width="375pt" height="103pt"
 viewBox="0.00 0.00 375.00 103.00" xmlns="http://www.w3.org/2000/svg" xmlns:xlink="http://www.w3.org/1999/xlink">
<g id="graph0" class="graph" transform="scale(1 1) rotate(0) translate(4 99)">
<title>CM_TickObjects</title>
<!-- Node1 -->
<g id="Node000001" class="node">
<title>Node1</title>
<g id="a_Node000001"><a xlink:title=" ">
<polygon fill="#999999" stroke="#666666" points="95,-57 0,-57 0,-38 95,-38 95,-57"/>
<text text-anchor="middle" x="47.5" y="-45" font-family="Helvetica,sans-Serif" font-size="10.00">CM_TickObjects</text>
</a>
</g>
</g>
<!-- Node2 -->
<g id="Node000002" class="node">
<title>Node2</title>
<g id="a_Node000002"><a xlink:href="Game_8cpp.html#a0967ca61e9f768c9e278fef7b8030085" target="_top" xlink:title=" ">
<polygon fill="white" stroke="#666666" points="214,-95 155,-95 155,-76 214,-76 214,-95"/>
<text text-anchor="middle" x="184.5" y="-83" font-family="Helvetica,sans-Serif" font-size="10.00">GetTrack</text>
</a>
</g>
</g>
<!-- Node1&#45;&gt;Node2 -->
<g id="edge1_Node000001_Node000002" class="edge">
<title>Node1&#45;&gt;Node2</title>
<g id="a_edge1_Node000001_Node000002"><a xlink:title=" ">
<path fill="none" stroke="#63b8ff" d="M82.57,-57.09C101.59,-62.44 125.35,-69.13 145.04,-74.68"/>
<polygon fill="#63b8ff" stroke="#63b8ff" points="144.35,-78.12 154.92,-77.46 146.24,-71.38 144.35,-78.12"/>
</a>
</g>
</g>
<!-- Node4 -->
<g id="Node000004" class="node">
<title>Node4</title>
<g id="a_Node000004"><a xlink:href="Game_8cpp.html#ae2fa844b3cb1021ecbc357f8ed2ad8cc" target="_top" xlink:title=" ">
<polygon fill="white" stroke="#666666" points="351.5,-57 289.5,-57 289.5,-38 351.5,-38 351.5,-57"/>
<text text-anchor="middle" x="320.5" y="-45" font-family="Helvetica,sans-Serif" font-size="10.00">GetWorld</text>
</a>
</g>
</g>
<!-- Node1&#45;&gt;Node4 -->
<g id="edge4_Node000001_Node000004" class="edge">
<title>Node1&#45;&gt;Node4</title>
<g id="a_edge4_Node000001_Node000004"><a xlink:title=" ">
<path fill="none" stroke="#63b8ff" d="M95.09,-47.5C146.97,-47.5 229.99,-47.5 279.19,-47.5"/>
<polygon fill="#63b8ff" stroke="#63b8ff" points="279.45,-51 289.45,-47.5 279.45,-44 279.45,-51"/>
</a>
</g>
</g>
<!-- Node5 -->
<g id="Node000005" class="node">
<title>Node5</title>
<g id="a_Node000005"><a xlink:href="classWorld.html#a0de989a6f75eb63748dfe33065ab7212" target="_top" xlink:title=" ">
<polygon fill="white" stroke="#666666" points="238,-19 131,-19 131,0 238,0 238,-19"/>
<text text-anchor="middle" x="184.5" y="-7" font-family="Helvetica,sans-Serif" font-size="10.00">World::TickObjects</text>
</a>
</g>
</g>
<!-- Node1&#45;&gt;Node5 -->
<g id="edge5_Node000001_Node000005" class="edge">
<title>Node1&#45;&gt;Node5</title>
<g id="a_edge5_Node000001_Node000005"><a xlink:title=" ">
<path fill="none" stroke="#63b8ff" d="M82.57,-37.91C99.91,-33.03 121.2,-27.04 139.75,-21.82"/>
<polygon fill="#63b8ff" stroke="#63b8ff" points="140.77,-25.16 149.44,-19.09 138.87,-18.43 140.77,-25.16"/>
</a>
</g>
</g>
<!-- Node3 -->
<g id="Node000003" class="node">
<title>Node3</title>
<g id="a_Node000003"><a xlink:href="classWorld.html#a1a4dacc6aea0b846df998be0afc239f7" target="_top" xlink:title=" ">
<polygon fill="white" stroke="#666666" points="367,-95 274,-95 274,-76 367,-76 367,-95"/>
<text text-anchor="middle" x="320.5" y="-83" font-family="Helvetica,sans-Serif" font-size="10.00">World::GetTrack</text>
</a>
</g>
</g>
<!-- Node2&#45;&gt;Node3 -->
<g id="edge2_Node000002_Node000003" class="edge">
<title>Node2&#45;&gt;Node3</title>
<g id="a_edge2_Node000002_Node000003"><a xlink:title=" ">
<path fill="none" stroke="#63b8ff" d="M214.25,-85.5C228.64,-85.5 246.57,-85.5 263.54,-85.5"/>
<polygon fill="#63b8ff" stroke="#63b8ff" points="263.93,-89 273.93,-85.5 263.93,-82 263.93,-89"/>
</a>
</g>
</g>
<!-- Node2&#45;&gt;Node4 -->
<g id="edge3_Node000002_Node000004" class="edge">
<title>Node2&#45;&gt;Node4</title>
<g id="a_edge3_Node000002_Node000004"><a xlink:title=" ">
<path fill="none" stroke="#63b8ff" d="M214.25,-77.35C233.37,-71.93 258.74,-64.73 279.78,-58.76"/>
<polygon fill="#63b8ff" stroke="#63b8ff" points="280.74,-62.13 289.41,-56.03 278.83,-55.39 280.74,-62.13"/>
</a>
</g>
</g>
<!-- Node6 -->
<g id="Node000006" class="node">
<title>Node6</title>
<g id="a_Node000006"><a xlink:href="classOObject.html#a3a207a0d2b4292e683e70f57e854fc22" target="_top" xlink:title=" ">
<polygon fill="white" stroke="#666666" points="361.5,-19 279.5,-19 279.5,0 361.5,0 361.5,-19"/>
<text text-anchor="middle" x="320.5" y="-7" font-family="Helvetica,sans-Serif" font-size="10.00">OObject::Tick</text>
</a>
</g>
</g>
<!-- Node5&#45;&gt;Node6 -->
<g id="edge6_Node000005_Node000006" class="edge">
<title>Node5&#45;&gt;Node6</title>
<g id="a_edge6_Node000005_Node000006"><a xlink:title=" ">
<path fill="none" stroke="#63b8ff" d="M238.08,-9.5C248.2,-9.5 258.78,-9.5 268.84,-9.5"/>
<polygon fill="#63b8ff" stroke="#63b8ff" points="269.09,-13 279.09,-9.5 269.09,-6 269.09,-13"/>
</a>
</g>
</g>
</g>
</svg>
