<?xml version="1.0" encoding="UTF-8" standalone="no"?>
<!DOCTYPE svg PUBLIC "-//W3C//DTD SVG 1.1//EN"
 "http://www.w3.org/Graphics/SVG/1.1/DTD/svg11.dtd">
<!-- Generated by graphviz version 2.43.0 (0)
 -->
<!-- Title: UIWidgets::DrawFlagArray8Mask Pages: 1 -->
<svg width="665pt" height="175pt"
 viewBox="0.00 0.00 665.00 175.00" xmlns="http://www.w3.org/2000/svg" xmlns:xlink="http://www.w3.org/1999/xlink">
<g id="graph0" class="graph" transform="scale(1 1) rotate(0) translate(4 171)">
<title>UIWidgets::DrawFlagArray8Mask</title>
<!-- Node1 -->
<g id="Node000001" class="node">
<title>Node1</title>
<g id="a_Node000001"><a xlink:title=" ">
<polygon fill="#999999" stroke="#666666" points="178,-71 0,-71 0,-52 178,-52 178,-71"/>
<text text-anchor="middle" x="89" y="-59" font-family="Helvetica,sans-Serif" font-size="10.00">UIWidgets::DrawFlagArray8Mask</text>
</a>
</g>
</g>
<!-- Node1&#45;&gt;Node1 -->
<g id="edge8_Node000001_Node000001" class="edge">
<title>Node1&#45;&gt;Node1</title>
<g id="a_edge8_Node000001_Node000001"><a xlink:title=" ">
<path fill="none" stroke="#63b8ff" d="M57.56,-71.08C42.26,-79.73 52.74,-89 89,-89 114.49,-89 127.24,-84.42 127.25,-78.69"/>
<polygon fill="#63b8ff" stroke="#63b8ff" points="129.72,-76.2 120.44,-71.08 124.5,-80.87 129.72,-76.2"/>
</a>
</g>
</g>
<!-- Node2 -->
<g id="Node000002" class="node">
<title>Node2</title>
<g id="a_Node000002"><a xlink:href="namespaceUIWidgets.html#a28268b432c9b36af9e83d12b8b28bb35" target="_top" xlink:title=" ">
<polygon fill="white" stroke="#666666" points="353.5,-93 232.5,-93 232.5,-74 353.5,-74 353.5,-93"/>
<text text-anchor="middle" x="293" y="-81" font-family="Helvetica,sans-Serif" font-size="10.00">UIWidgets::Checkbox</text>
</a>
</g>
</g>
<!-- Node1&#45;&gt;Node2 -->
<g id="edge1_Node000001_Node000002" class="edge">
<title>Node1&#45;&gt;Node2</title>
<g id="a_edge1_Node000001_Node000002"><a xlink:title=" ">
<path fill="none" stroke="#63b8ff" d="M177.43,-71.02C192.35,-72.65 207.69,-74.32 222.09,-75.89"/>
<polygon fill="#63b8ff" stroke="#63b8ff" points="222.07,-79.4 232.39,-77.01 222.82,-72.45 222.07,-79.4"/>
</a>
</g>
</g>
<!-- Node9 -->
<g id="Node000009" class="node">
<title>Node9</title>
<g id="a_Node000009"><a xlink:href="structUIWidgets_1_1CheckboxOptions.html#a0dddf57b441e2724b7d7f9b95abb0351" target="_top" xlink:title=" ">
<polygon fill="white" stroke="#666666" points="372,-55.5 214,-55.5 214,-25.5 372,-25.5 372,-55.5"/>
<text text-anchor="start" x="222" y="-43.5" font-family="Helvetica,sans-Serif" font-size="10.00">UIWidgets::CheckboxOptions</text>
<text text-anchor="middle" x="293" y="-32.5" font-family="Helvetica,sans-Serif" font-size="10.00">::LabelPosition</text>
</a>
</g>
</g>
<!-- Node1&#45;&gt;Node9 -->
<g id="edge9_Node000001_Node000009" class="edge">
<title>Node1&#45;&gt;Node9</title>
<g id="a_edge9_Node000001_Node000009"><a xlink:title=" ">
<path fill="none" stroke="#63b8ff" d="M178.01,-52.35C186.57,-51.46 195.26,-50.56 203.82,-49.67"/>
<polygon fill="#63b8ff" stroke="#63b8ff" points="204.21,-53.15 213.79,-48.63 203.48,-46.18 204.21,-53.15"/>
</a>
</g>
</g>
<!-- Node3 -->
<g id="Node000003" class="node">
<title>Node3</title>
<g id="a_Node000003"><a xlink:href="namespaceUIWidgets.html#a3afde5e39ce67a2370ecef5ffb427636" target="_top" xlink:title=" ">
<polygon fill="white" stroke="#666666" points="574.5,-167 410.5,-167 410.5,-148 574.5,-148 574.5,-167"/>
<text text-anchor="middle" x="492.5" y="-155" font-family="Helvetica,sans-Serif" font-size="10.00">UIWidgets::PopStyleCheckbox</text>
</a>
</g>
</g>
<!-- Node2&#45;&gt;Node3 -->
<g id="edge2_Node000002_Node000003" class="edge">
<title>Node2&#45;&gt;Node3</title>
<g id="a_edge2_Node000002_Node000003"><a xlink:title=" ">
<path fill="none" stroke="#63b8ff" d="M310.44,-93.18C332.12,-105.56 371.76,-126.91 408,-139.5 414.4,-141.72 421.17,-143.73 427.99,-145.52"/>
<polygon fill="#63b8ff" stroke="#63b8ff" points="427.41,-148.98 437.96,-147.99 429.09,-142.19 427.41,-148.98"/>
</a>
</g>
</g>
<!-- Node4 -->
<g id="Node000004" class="node">
<title>Node4</title>
<g id="a_Node000004"><a xlink:href="namespaceUIWidgets.html#a330697ff7208bc380bcfe8640b864718" target="_top" xlink:title=" ">
<polygon fill="white" stroke="#666666" points="577,-130 408,-130 408,-111 577,-111 577,-130"/>
<text text-anchor="middle" x="492.5" y="-118" font-family="Helvetica,sans-Serif" font-size="10.00">UIWidgets::PushStyleCheckbox</text>
</a>
</g>
</g>
<!-- Node2&#45;&gt;Node4 -->
<g id="edge3_Node000002_Node000004" class="edge">
<title>Node2&#45;&gt;Node4</title>
<g id="a_edge3_Node000002_Node000004"><a xlink:title=" ">
<path fill="none" stroke="#63b8ff" d="M344.86,-93.03C371.02,-97.93 403.1,-103.94 430.57,-109.09"/>
<polygon fill="#63b8ff" stroke="#63b8ff" points="429.99,-112.54 440.47,-110.94 431.28,-105.66 429.99,-112.54"/>
</a>
</g>
</g>
<!-- Node5 -->
<g id="Node000005" class="node">
<title>Node5</title>
<g id="a_Node000005"><a xlink:href="namespaceUIWidgets.html#ae0f4f1b0659f0e53e3077a5acb0c6b05" target="_top" xlink:title=" ">
<polygon fill="white" stroke="#666666" points="556.5,-93 428.5,-93 428.5,-74 556.5,-74 556.5,-93"/>
<text text-anchor="middle" x="492.5" y="-81" font-family="Helvetica,sans-Serif" font-size="10.00">UIWidgets::RenderText</text>
</a>
</g>
</g>
<!-- Node2&#45;&gt;Node5 -->
<g id="edge4_Node000002_Node000005" class="edge">
<title>Node2&#45;&gt;Node5</title>
<g id="a_edge4_Node000002_Node000005"><a xlink:title=" ">
<path fill="none" stroke="#63b8ff" d="M353.52,-83.5C373.83,-83.5 396.77,-83.5 418.04,-83.5"/>
<polygon fill="#63b8ff" stroke="#63b8ff" points="418.32,-87 428.32,-83.5 418.32,-80 418.32,-87"/>
</a>
</g>
</g>
<!-- Node7 -->
<g id="Node000007" class="node">
<title>Node7</title>
<g id="a_Node000007"><a xlink:href="ShipUtils_8cpp.html#a31d87083f0db90738310ec533f7e9d17" target="_top" xlink:title=" ">
<polygon fill="white" stroke="#666666" points="551.5,-56 433.5,-56 433.5,-37 551.5,-37 551.5,-56"/>
<text text-anchor="middle" x="492.5" y="-44" font-family="Helvetica,sans-Serif" font-size="10.00">Ship_IsCStringEmpty</text>
</a>
</g>
</g>
<!-- Node2&#45;&gt;Node7 -->
<g id="edge6_Node000002_Node000007" class="edge">
<title>Node2&#45;&gt;Node7</title>
<g id="a_edge6_Node000002_Node000007"><a xlink:title=" ">
<path fill="none" stroke="#63b8ff" d="M344.86,-73.97C371.02,-69.07 403.1,-63.06 430.57,-57.91"/>
<polygon fill="#63b8ff" stroke="#63b8ff" points="431.28,-61.34 440.47,-56.06 429.99,-54.46 431.28,-61.34"/>
</a>
</g>
</g>
<!-- Node8 -->
<g id="Node000008" class="node">
<title>Node8</title>
<g id="a_Node000008"><a xlink:href="namespaceUIWidgets.html#a01b8f77a826ec1dcc1ee8c9a21c219d6" target="_top" xlink:title=" ">
<polygon fill="white" stroke="#666666" points="561,-19 424,-19 424,0 561,0 561,-19"/>
<text text-anchor="middle" x="492.5" y="-7" font-family="Helvetica,sans-Serif" font-size="10.00">UIWidgets::WrappedText</text>
</a>
</g>
</g>
<!-- Node2&#45;&gt;Node8 -->
<g id="edge7_Node000002_Node000008" class="edge">
<title>Node2&#45;&gt;Node8</title>
<g id="a_edge7_Node000002_Node000008"><a xlink:title=" ">
<path fill="none" stroke="#63b8ff" d="M349.57,-73.96C357.37,-71.49 365.07,-68.39 372,-64.5 391.72,-53.41 388.19,-39.44 408,-28.5 412.17,-26.2 416.61,-24.17 421.18,-22.39"/>
<polygon fill="#63b8ff" stroke="#63b8ff" points="422.41,-25.67 430.71,-19.07 420.11,-19.06 422.41,-25.67"/>
</a>
</g>
</g>
<!-- Node6 -->
<g id="Node000006" class="node">
<title>Node6</title>
<g id="a_Node000006"><a xlink:href="string_8c.html#a008e171a518fe0e0352f31b245e03875" target="_top" xlink:title=" ">
<polygon fill="white" stroke="#666666" points="657,-93 613,-93 613,-74 657,-74 657,-93"/>
<text text-anchor="middle" x="635" y="-81" font-family="Helvetica,sans-Serif" font-size="10.00">strlen</text>
</a>
</g>
</g>
<!-- Node5&#45;&gt;Node6 -->
<g id="edge5_Node000005_Node000006" class="edge">
<title>Node5&#45;&gt;Node6</title>
<g id="a_edge5_Node000005_Node000006"><a xlink:title=" ">
<path fill="none" stroke="#63b8ff" d="M556.76,-83.5C572.63,-83.5 588.97,-83.5 602.51,-83.5"/>
<polygon fill="#63b8ff" stroke="#63b8ff" points="602.71,-87 612.71,-83.5 602.71,-80 602.71,-87"/>
</a>
</g>
</g>
</g>
</svg>
