<?xml version="1.0" encoding="UTF-8" standalone="no"?>
<!DOCTYPE svg PUBLIC "-//W3C//DTD SVG 1.1//EN"
 "http://www.w3.org/Graphics/SVG/1.1/DTD/svg11.dtd">
<!-- Generated by graphviz version 2.43.0 (0)
 -->
<!-- Title: GameUI::RegisterResolutionWidgets Pages: 1 -->
<svg width="362pt" height="161pt"
 viewBox="0.00 0.00 362.00 160.50" xmlns="http://www.w3.org/2000/svg" xmlns:xlink="http://www.w3.org/1999/xlink">

<svg id="main" version="1.1" xmlns="http://www.w3.org/2000/svg" xmlns:xlink="http://www.w3.org/1999/xlink" xml:space="preserve" onload="init(evt)">
<style type="text/css"><![CDATA[
.node, .edge {opacity: 0.7;}
.node.selected, .edge.selected {opacity: 1;}
.edge:hover path { stroke: red; }
.edge:hover polygon { stroke: red; fill: red; }
]]></style>
<script type="application/ecmascript" xlink:href="svg.min.js"/>
<svg id="graph" class="graph">
<g id="graph0" class="graph" transform="scale(1 1) rotate(0) translate(4 156.5)">
<title>GameUI::RegisterResolutionWidgets</title>
<!-- Node1 -->
<g id="Node000001" class="node">
<title>Node1</title>
<g id="a_Node000001"><a xlink:title=" ">
<polygon fill="#999999" stroke="#666666" points="155,-82.5 0,-82.5 0,-52.5 155,-52.5 155,-82.5"/>
<text text-anchor="start" x="8" y="-70.5" font-family="Helvetica,sans-Serif" font-size="10.00">GameUI::RegisterResolution</text>
<text text-anchor="middle" x="77.5" y="-59.5" font-family="Helvetica,sans-Serif" font-size="10.00">Widgets</text>
</a>
</g>
</g>
<!-- Node2 -->
<g id="Node000002" class="node">
<title>Node2</title>
<g id="a_Node000002"><a xlink:href="structUIWidgets_1_1WidgetOptions.html#ac668640eb1d78aa70e1dc965abb99e14" target="_top" xlink:title=" ">
<polygon fill="white" stroke="#666666" points="345,-152.5 200,-152.5 200,-122.5 345,-122.5 345,-152.5"/>
<text text-anchor="start" x="208" y="-140.5" font-family="Helvetica,sans-Serif" font-size="10.00">UIWidgets::WidgetOptions</text>
<text text-anchor="middle" x="272.5" y="-129.5" font-family="Helvetica,sans-Serif" font-size="10.00">::Color</text>
</a>
</g>
</g>
<!-- Node1&#45;&gt;Node2 -->
<g id="edge1_Node000001_Node000002" class="edge">
<title>Node1&#45;&gt;Node2</title>
<g id="a_edge1_Node000001_Node000002"><a xlink:title=" ">
<path fill="none" stroke="#63b8ff" d="M113.13,-82.69C135.2,-92.12 164.53,-104.17 191,-113.5 196.64,-115.49 202.54,-117.45 208.47,-119.36"/>
<polygon fill="#63b8ff" stroke="#63b8ff" points="207.84,-122.83 218.43,-122.49 209.94,-116.15 207.84,-122.83"/>
</a>
</g>
</g>
<!-- Node3 -->
<g id="Node000003" class="node">
<title>Node3</title>
<g id="a_Node000003"><a xlink:href="structUIWidgets_1_1ComboboxOptions.html#aa1c8e40550438a3419cd867a2164bff7" target="_top" xlink:title=" ">
<polygon fill="white" stroke="#666666" points="354,-104.5 191,-104.5 191,-74.5 354,-74.5 354,-104.5"/>
<text text-anchor="start" x="199" y="-92.5" font-family="Helvetica,sans-Serif" font-size="10.00">UIWidgets::ComboboxOptions</text>
<text text-anchor="middle" x="272.5" y="-81.5" font-family="Helvetica,sans-Serif" font-size="10.00">::ComboMap</text>
</a>
</g>
</g>
<!-- Node1&#45;&gt;Node3 -->
<g id="edge2_Node000001_Node000003" class="edge">
<title>Node1&#45;&gt;Node3</title>
<g id="a_edge2_Node000001_Node000003"><a xlink:title=" ">
<path fill="none" stroke="#63b8ff" d="M155.06,-76.23C163.53,-77.19 172.21,-78.18 180.84,-79.17"/>
<polygon fill="#63b8ff" stroke="#63b8ff" points="180.59,-82.66 190.92,-80.31 181.38,-75.7 180.59,-82.66"/>
</a>
</g>
</g>
<!-- Node4 -->
<g id="Node000004" class="node">
<title>Node4</title>
<g id="a_Node000004"><a xlink:href="Engine_8cpp.html#a29357c424545be61af4bd28d84fd344a" target="_top" xlink:title=" ">
<polygon fill="white" stroke="#666666" points="315.5,-56 229.5,-56 229.5,-37 315.5,-37 315.5,-56"/>
<text text-anchor="middle" x="272.5" y="-44" font-family="Helvetica,sans-Serif" font-size="10.00">GetInterpreter</text>
</a>
</g>
</g>
<!-- Node1&#45;&gt;Node4 -->
<g id="edge3_Node000001_Node000004" class="edge">
<title>Node1&#45;&gt;Node4</title>
<g id="a_edge3_Node000001_Node000004"><a xlink:title=" ">
<path fill="none" stroke="#63b8ff" d="M155.06,-59.17C176.65,-56.82 199.65,-54.32 219.45,-52.16"/>
<polygon fill="#63b8ff" stroke="#63b8ff" points="219.92,-55.63 229.48,-51.07 219.16,-48.67 219.92,-55.63"/>
</a>
</g>
</g>
<!-- Node5 -->
<g id="Node000005" class="node">
<title>Node5</title>
<g id="a_Node000005"><a xlink:href="namespaceGameUI.html#a55abf2765a84717f95a4c4766379665a" target="_top" xlink:title=" ">
<polygon fill="white" stroke="#666666" points="348,-19 197,-19 197,0 348,0 348,-19"/>
<text text-anchor="middle" x="272.5" y="-7" font-family="Helvetica,sans-Serif" font-size="10.00">GameUI::IsDroppingFrames</text>
</a>
</g>
</g>
<!-- Node1&#45;&gt;Node5 -->
<g id="edge4_Node000001_Node000005" class="edge">
<title>Node1&#45;&gt;Node5</title>
<g id="a_edge4_Node000001_Node000005"><a xlink:title=" ">
<path fill="none" stroke="#63b8ff" d="M118.8,-52.41C140.1,-44.72 166.78,-35.54 191,-28.5 199.52,-26.03 208.61,-23.64 217.5,-21.44"/>
<polygon fill="#63b8ff" stroke="#63b8ff" points="218.52,-24.8 227.42,-19.05 216.88,-17.99 218.52,-24.8"/>
</a>
</g>
</g>
</g>
</svg>
</svg>

<style type='text/css'>
<![CDATA[
[data-mouse-over-selected='false'] { opacity: 0.7; }
[data-mouse-over-selected='true']  { opacity: 1.0; }
]]>
</style>
<script type="application/ecmascript"><![CDATA[
document.addEventListener('DOMContentLoaded', (event) => {
  highlightEdges();
  highlightAdjacentNodes();
});
]]></script>
</svg>
