<?xml version="1.0" encoding="UTF-8" standalone="no"?>
<!DOCTYPE svg PUBLIC "-//W3C//DTD SVG 1.1//EN"
 "http://www.w3.org/Graphics/SVG/1.1/DTD/svg11.dtd">
<!-- Generated by graphviz version 2.43.0 (0)
 -->
<!-- Title: get_drum Pages: 1 -->
<!--zoomable 76 -->

<svg id="main" version="1.1" xmlns="http://www.w3.org/2000/svg" xmlns:xlink="http://www.w3.org/1999/xlink" xml:space="preserve" onload="init(evt)">
<style type="text/css"><![CDATA[
.node, .edge {opacity: 0.7;}
.node.selected, .edge.selected {opacity: 1;}
.edge:hover path { stroke: red; }
.edge:hover polygon { stroke: red; fill: red; }
]]></style>

<defs>
  <circle id="rim" cx="0" cy="0" r="7"/>
  <circle id="rim2" cx="0" cy="0" r="3.5"/>
  <g id="zoomPlus">
    <use xlink:href="#rim" fill="#404040"><set attributeName="fill" to="#808080" begin="zoomplus.mouseover" end="zoomplus.mouseout"/></use>
    <path d="M-4,0h8M0,-4v8" fill="none" stroke="white" stroke-width="1.5" pointer-events="none"/>
  </g>
  <g id="zoomMin">
    <use xlink:href="#rim" fill="#404040"><set attributeName="fill" to="#808080" begin="zoomminus.mouseover" end="zoomminus.mouseout"/></use>
    <path d="M-4,0h8" fill="none" stroke="white" stroke-width="1.5" pointer-events="none"/>
  </g>
  <g id="arrowUp" transform="translate(30 24)">
    <use xlink:href="#rim"/>
    <path pointer-events="none" fill="none" stroke="white" stroke-width="1.5" d="M0,-3.0v7 M-2.5,-0.5L0,-3.0L2.5,-0.5"/>
  </g>
  <g id="arrowRight" transform="rotate(90) translate(36 -43)">
    <use xlink:href="#rim"/>
    <path pointer-events="none" fill="none" stroke="white" stroke-width="1.5" d="M0,-3.0v7 M-2.5,-0.5L0,-3.0L2.5,-0.5"/>
  </g>
  <g id="arrowDown" transform="rotate(180) translate(-30 -48)">
    <use xlink:href="#rim"/>
    <path pointer-events="none" fill="none" stroke="white" stroke-width="1.5" d="M0,-3.0v7 M-2.5,-0.5L0,-3.0L2.5,-0.5"/>
  </g>
  <g id="arrowLeft" transform="rotate(270) translate(-36 17)">
    <use xlink:href="#rim"/>
    <path pointer-events="none" fill="none" stroke="white" stroke-width="1.5" d="M0,-3.0v7 M-2.5,-0.5L0,-3.0L2.5,-0.5"/>
  </g>
  <g id="resetDef">
    <use xlink:href="#rim2" fill="#404040"><set attributeName="fill" to="#808080" begin="reset.mouseover" end="reset.mouseout"/></use>
  </g>
</defs>
<script type="application/ecmascript">
var viewWidth = 1574;
var viewHeight = 76;
var sectionId = 'dynsection-16';
</script>
<script type="application/ecmascript" xlink:href="svg.min.js"/>
<svg id="graph" class="graph">
<g id="viewport">
<title>get_drum</title>
<!-- Node1 -->
<g id="Node000001" class="node">
<title>Node1</title>
<g id="a_Node000001"><a xlink:title=" ">
<polygon fill="#999999" stroke="#666666" points="1566,-45.5 1503,-45.5 1503,-26.5 1566,-26.5 1566,-45.5"/>
<text text-anchor="middle" x="1534.5" y="-33.5" font-family="Helvetica,sans-Serif" font-size="10.00">get_drum</text>
</a>
</g>
</g>
<!-- Node2 -->
<g id="Node000002" class="node">
<title>Node2</title>
<g id="a_Node000002"><a xlink:href="load_8c.html#ab3527402c5b0ba729e379fb33e802291" target="_top" xlink:title=" ">
<polygon fill="white" stroke="#666666" points="1438,-67.5 1346,-67.5 1346,-48.5 1438,-48.5 1438,-67.5"/>
<text text-anchor="middle" x="1392" y="-55.5" font-family="Helvetica,sans-Serif" font-size="10.00">func_800BB388</text>
</a>
</g>
</g>
<!-- Node1&#45;&gt;Node2 -->
<g id="edge1_Node000001_Node000002" class="edge">
<title>Node1&#45;&gt;Node2</title>
<g id="a_edge1_Node000001_Node000002"><a xlink:title=" ">
<path fill="none" stroke="#63b8ff" d="M1492.47,-42.43C1475.43,-45.09 1455.61,-48.2 1438.17,-50.93"/>
<polygon fill="#63b8ff" stroke="#63b8ff" points="1493.33,-45.83 1502.67,-40.83 1492.25,-38.92 1493.33,-45.83"/>
</a>
</g>
</g>
<!-- Node11 -->
<g id="Node000011" class="node">
<title>Node11</title>
<g id="a_Node000011"><a xlink:href="seqplayer_8c.html#aa502aaa2a2da31ea46aa1cd8b25ff668" target="_top" xlink:title=" ">
<polygon fill="white" stroke="#666666" points="1467,-30 1317,-30 1317,0 1467,0 1467,-30"/>
<text text-anchor="start" x="1325" y="-18" font-family="Helvetica,sans-Serif" font-size="10.00">seq_channel_layer_process</text>
<text text-anchor="middle" x="1392" y="-7" font-family="Helvetica,sans-Serif" font-size="10.00">_script</text>
</a>
</g>
</g>
<!-- Node1&#45;&gt;Node11 -->
<g id="edge10_Node000001_Node000011" class="edge">
<title>Node1&#45;&gt;Node11</title>
<g id="a_edge10_Node000001_Node000011"><a xlink:title=" ">
<path fill="none" stroke="#63b8ff" d="M1492.55,-29.88C1484.55,-28.68 1475.93,-27.39 1467.22,-26.09"/>
<polygon fill="#63b8ff" stroke="#63b8ff" points="1492.26,-33.37 1502.67,-31.39 1493.29,-26.45 1492.26,-33.37"/>
</a>
</g>
</g>
<!-- Node3 -->
<g id="Node000003" class="node">
<title>Node3</title>
<g id="a_Node000003"><a xlink:href="port__eu_8c.html#af9631ae86d86a13a1cbdb83aec196fc3" target="_top" xlink:title=" ">
<polygon fill="white" stroke="#666666" points="1271.5,-67.5 1141.5,-67.5 1141.5,-48.5 1271.5,-48.5 1271.5,-67.5"/>
<text text-anchor="middle" x="1206.5" y="-55.5" font-family="Helvetica,sans-Serif" font-size="10.00">eu_process_audio_cmd</text>
</a>
</g>
</g>
<!-- Node2&#45;&gt;Node3 -->
<g id="edge2_Node000002_Node000003" class="edge">
<title>Node2&#45;&gt;Node3</title>
<g id="a_edge2_Node000002_Node000003"><a xlink:title=" ">
<path fill="none" stroke="#63b8ff" d="M1335.41,-58C1315.33,-58 1292.49,-58 1271.72,-58"/>
<polygon fill="#63b8ff" stroke="#63b8ff" points="1335.64,-61.5 1345.64,-58 1335.64,-54.5 1335.64,-61.5"/>
</a>
</g>
</g>
<!-- Node4 -->
<g id="Node000004" class="node">
<title>Node4</title>
<g id="a_Node000004"><a xlink:href="port__eu_8c.html#adbb164f6ad02d89aead401d442b75ce5" target="_top" xlink:title=" ">
<polygon fill="white" stroke="#666666" points="764.5,-64.5 670.5,-64.5 670.5,-45.5 764.5,-45.5 764.5,-64.5"/>
<text text-anchor="middle" x="717.5" y="-52.5" font-family="Helvetica,sans-Serif" font-size="10.00">func_800CBCB0</text>
</a>
</g>
</g>
<!-- Node3&#45;&gt;Node4 -->
<g id="edge3_Node000003_Node000004" class="edge">
<title>Node3&#45;&gt;Node4</title>
<g id="a_edge3_Node000003_Node000004"><a xlink:title=" ">
<path fill="none" stroke="#63b8ff" d="M1131.11,-57.54C1029.15,-56.91 849.04,-55.8 764.61,-55.28"/>
<polygon fill="#63b8ff" stroke="#63b8ff" points="1131.31,-61.04 1141.33,-57.6 1131.35,-54.04 1131.31,-61.04"/>
</a>
</g>
</g>
<!-- Node5 -->
<g id="Node000005" class="node">
<title>Node5</title>
<g id="a_Node000005"><a xlink:href="port__eu_8c.html#a1d9119a2b49700e0bac6c9faabc7991b" target="_top" xlink:title=" ">
<polygon fill="white" stroke="#666666" points="614.5,-64.5 474.5,-64.5 474.5,-45.5 614.5,-45.5 614.5,-64.5"/>
<text text-anchor="middle" x="544.5" y="-52.5" font-family="Helvetica,sans-Serif" font-size="10.00">create_next_audio_buffer</text>
</a>
</g>
</g>
<!-- Node4&#45;&gt;Node5 -->
<g id="edge4_Node000004_Node000005" class="edge">
<title>Node4&#45;&gt;Node5</title>
<g id="a_edge4_Node000004_Node000005"><a xlink:title=" ">
<path fill="none" stroke="#63b8ff" d="M659.92,-55C645.43,-55 629.67,-55 614.62,-55"/>
<polygon fill="#63b8ff" stroke="#63b8ff" points="660.22,-58.5 670.22,-55 660.22,-51.5 660.22,-58.5"/>
</a>
</g>
</g>
<!-- Node6 -->
<g id="Node000006" class="node">
<title>Node6</title>
<g id="a_Node000006"><a xlink:href="port__eu_8c.html#a17e6cb53d677ce7a809303aa122cb4cf" target="_top" xlink:title=" ">
<polygon fill="white" stroke="#666666" points="628,-27.5 461,-27.5 461,-8.5 628,-8.5 628,-27.5"/>
<text text-anchor="middle" x="544.5" y="-15.5" font-family="Helvetica,sans-Serif" font-size="10.00">create_next_audio_frame_task</text>
</a>
</g>
</g>
<!-- Node4&#45;&gt;Node6 -->
<g id="edge5_Node000004_Node000006" class="edge">
<title>Node4&#45;&gt;Node6</title>
<g id="a_edge5_Node000004_Node000006"><a xlink:title=" ">
<path fill="none" stroke="#63b8ff" d="M662.65,-43.35C639.16,-38.27 611.96,-32.38 589.68,-27.56"/>
<polygon fill="#63b8ff" stroke="#63b8ff" points="661.95,-46.78 672.46,-45.47 663.43,-39.94 661.95,-46.78"/>
</a>
</g>
</g>
<!-- Node7 -->
<g id="Node000007" class="node">
<title>Node7</title>
<g id="a_Node000007"><a xlink:href="main_8c.html#adc4ddc4dba28c4eebe8a7c28e5559b11" target="_top" xlink:title=" ">
<polygon fill="white" stroke="#666666" points="425,-27.5 339,-27.5 339,-8.5 425,-8.5 425,-27.5"/>
<text text-anchor="middle" x="382" y="-15.5" font-family="Helvetica,sans-Serif" font-size="10.00">thread4_audio</text>
</a>
</g>
</g>
<!-- Node6&#45;&gt;Node7 -->
<g id="edge6_Node000006_Node000007" class="edge">
<title>Node6&#45;&gt;Node7</title>
<g id="a_edge6_Node000006_Node000007"><a xlink:title=" ">
<path fill="none" stroke="#63b8ff" d="M450.86,-18C442.02,-18 433.39,-18 425.41,-18"/>
<polygon fill="#63b8ff" stroke="#63b8ff" points="450.9,-21.5 460.9,-18 450.9,-14.5 450.9,-21.5"/>
</a>
</g>
</g>
<!-- Node8 -->
<g id="Node000008" class="node">
<title>Node8</title>
<g id="a_Node000008"><a xlink:href="main_8c.html#a023b8f272e4efbd33f371e91ffff6b30" target="_top" xlink:title=" ">
<polygon fill="white" stroke="#666666" points="303,-27.5 217,-27.5 217,-8.5 303,-8.5 303,-27.5"/>
<text text-anchor="middle" x="260" y="-15.5" font-family="Helvetica,sans-Serif" font-size="10.00">thread3_video</text>
</a>
</g>
</g>
<!-- Node7&#45;&gt;Node8 -->
<g id="edge7_Node000007_Node000008" class="edge">
<title>Node7&#45;&gt;Node8</title>
<g id="a_edge7_Node000007_Node000008"><a xlink:title=" ">
<path fill="none" stroke="#63b8ff" d="M328.55,-18C320.12,-18 311.49,-18 303.33,-18"/>
<polygon fill="#63b8ff" stroke="#63b8ff" points="328.69,-21.5 338.69,-18 328.69,-14.5 328.69,-21.5"/>
</a>
</g>
</g>
<!-- Node9 -->
<g id="Node000009" class="node">
<title>Node9</title>
<g id="a_Node000009"><a xlink:href="main_8c.html#a1e35d2b842121e6aea373f09381616e5" target="_top" xlink:title=" ">
<polygon fill="white" stroke="#666666" points="181,-27.5 104,-27.5 104,-8.5 181,-8.5 181,-27.5"/>
<text text-anchor="middle" x="142.5" y="-15.5" font-family="Helvetica,sans-Serif" font-size="10.00">thread1_idle</text>
</a>
</g>
</g>
<!-- Node8&#45;&gt;Node9 -->
<g id="edge8_Node000008_Node000009" class="edge">
<title>Node8&#45;&gt;Node9</title>
<g id="a_edge8_Node000008_Node000009"><a xlink:title=" ">
<path fill="none" stroke="#63b8ff" d="M206.9,-18C198.2,-18 189.33,-18 181.09,-18"/>
<polygon fill="#63b8ff" stroke="#63b8ff" points="206.98,-21.5 216.98,-18 206.98,-14.5 206.98,-21.5"/>
</a>
</g>
</g>
<!-- Node10 -->
<g id="Node000010" class="node">
<title>Node10</title>
<g id="a_Node000010"><a xlink:href="main_8c.html#a4f87d43525fe95f60ea92bc8a3b70e62" target="_top" xlink:title=" ">
<polygon fill="white" stroke="#666666" points="68,-27.5 0,-27.5 0,-8.5 68,-8.5 68,-27.5"/>
<text text-anchor="middle" x="34" y="-15.5" font-family="Helvetica,sans-Serif" font-size="10.00">main_func</text>
</a>
</g>
</g>
<!-- Node9&#45;&gt;Node10 -->
<g id="edge9_Node000009_Node000010" class="edge">
<title>Node9&#45;&gt;Node10</title>
<g id="a_edge9_Node000009_Node000010"><a xlink:title=" ">
<path fill="none" stroke="#63b8ff" d="M93.95,-18C85.29,-18 76.44,-18 68.31,-18"/>
<polygon fill="#63b8ff" stroke="#63b8ff" points="93.95,-21.5 103.95,-18 93.95,-14.5 93.95,-21.5"/>
</a>
</g>
</g>
<!-- Node12 -->
<g id="Node000012" class="node">
<title>Node12</title>
<g id="a_Node000012"><a xlink:href="seqplayer_8c.html#aa8903a3fda21cf479983688b377deb37" target="_top" xlink:title=" ">
<polygon fill="white" stroke="#666666" points="1281,-30 1132,-30 1132,0 1281,0 1281,-30"/>
<text text-anchor="start" x="1140" y="-18" font-family="Helvetica,sans-Serif" font-size="10.00">sequence_channel_process</text>
<text text-anchor="middle" x="1206.5" y="-7" font-family="Helvetica,sans-Serif" font-size="10.00">_script</text>
</a>
</g>
</g>
<!-- Node11&#45;&gt;Node12 -->
<g id="edge11_Node000011_Node000012" class="edge">
<title>Node11&#45;&gt;Node12</title>
<g id="a_edge11_Node000011_Node000012"><a xlink:title=" ">
<path fill="none" stroke="#63b8ff" d="M1306.63,-15C1298.17,-15 1289.63,-15 1281.29,-15"/>
<polygon fill="#63b8ff" stroke="#63b8ff" points="1306.89,-18.5 1316.89,-15 1306.89,-11.5 1306.89,-18.5"/>
</a>
</g>
</g>
<!-- Node13 -->
<g id="Node000013" class="node">
<title>Node13</title>
<g id="a_Node000013"><a xlink:href="seqplayer_8c.html#a057e95b47ecbd1b645b1ef457f3854d9" target="_top" xlink:title=" ">
<polygon fill="white" stroke="#666666" points="1096,-30 954,-30 954,0 1096,0 1096,-30"/>
<text text-anchor="start" x="962" y="-18" font-family="Helvetica,sans-Serif" font-size="10.00">sequence_player_process</text>
<text text-anchor="middle" x="1025" y="-7" font-family="Helvetica,sans-Serif" font-size="10.00">_sequence</text>
</a>
</g>
</g>
<!-- Node12&#45;&gt;Node13 -->
<g id="edge12_Node000012_Node000013" class="edge">
<title>Node12&#45;&gt;Node13</title>
<g id="a_edge12_Node000012_Node000013"><a xlink:title=" ">
<path fill="none" stroke="#63b8ff" d="M1121.93,-15C1113.34,-15 1104.66,-15 1096.23,-15"/>
<polygon fill="#63b8ff" stroke="#63b8ff" points="1121.97,-18.5 1131.97,-15 1121.97,-11.5 1121.97,-18.5"/>
</a>
</g>
</g>
<!-- Node14 -->
<g id="Node000014" class="node">
<title>Node14</title>
<g id="a_Node000014"><a xlink:href="seqplayer_8c.html#a017a1ff1f0545e2cde4fa43261892349" target="_top" xlink:title=" ">
<polygon fill="white" stroke="#666666" points="918,-27.5 807,-27.5 807,-8.5 918,-8.5 918,-27.5"/>
<text text-anchor="middle" x="862.5" y="-15.5" font-family="Helvetica,sans-Serif" font-size="10.00">process_sequences</text>
</a>
</g>
</g>
<!-- Node13&#45;&gt;Node14 -->
<g id="edge13_Node000013_Node000014" class="edge">
<title>Node13&#45;&gt;Node14</title>
<g id="a_edge13_Node000013_Node000014"><a xlink:title=" ">
<path fill="none" stroke="#63b8ff" d="M943.33,-16.51C934.89,-16.67 926.46,-16.82 918.4,-16.97"/>
<polygon fill="#63b8ff" stroke="#63b8ff" points="943.67,-20 953.6,-16.32 943.54,-13 943.67,-20"/>
</a>
</g>
</g>
<!-- Node15 -->
<g id="Node000015" class="node">
<title>Node15</title>
<g id="a_Node000015"><a xlink:href="synthesis_8c.html#a2994f1f3d3603607ed9bca3243c1d5cf" target="_top" xlink:title=" ">
<polygon fill="white" stroke="#666666" points="771,-27.5 664,-27.5 664,-8.5 771,-8.5 771,-27.5"/>
<text text-anchor="middle" x="717.5" y="-15.5" font-family="Helvetica,sans-Serif" font-size="10.00">synthesis_execute</text>
</a>
</g>
</g>
<!-- Node14&#45;&gt;Node15 -->
<g id="edge14_Node000014_Node000015" class="edge">
<title>Node14&#45;&gt;Node15</title>
<g id="a_edge14_Node000014_Node000015"><a xlink:title=" ">
<path fill="none" stroke="#63b8ff" d="M796.39,-18C787.92,-18 779.34,-18 771.11,-18"/>
<polygon fill="#63b8ff" stroke="#63b8ff" points="796.62,-21.5 806.62,-18 796.62,-14.5 796.62,-21.5"/>
</a>
</g>
</g>
<!-- Node15&#45;&gt;Node5 -->
<g id="edge15_Node000015_Node000005" class="edge">
<title>Node15&#45;&gt;Node5</title>
<g id="a_edge15_Node000015_Node000005"><a xlink:title=" ">
<path fill="none" stroke="#63b8ff" d="M662.65,-29.65C639.16,-34.73 611.96,-40.62 589.68,-45.44"/>
<polygon fill="#63b8ff" stroke="#63b8ff" points="663.43,-33.06 672.46,-27.53 661.95,-26.22 663.43,-33.06"/>
</a>
</g>
</g>
<!-- Node15&#45;&gt;Node6 -->
<g id="edge16_Node000015_Node000006" class="edge">
<title>Node15&#45;&gt;Node6</title>
<g id="a_edge16_Node000015_Node000006"><a xlink:title=" ">
<path fill="none" stroke="#63b8ff" d="M653.54,-18C645.29,-18 636.74,-18 628.22,-18"/>
<polygon fill="#63b8ff" stroke="#63b8ff" points="653.8,-21.5 663.8,-18 653.8,-14.5 653.8,-21.5"/>
</a>
</g>
</g>
</g>
</svg>

<g id="navigator" transform="translate(0 0)" fill="#404254">
  <rect fill="#f2f5e9" fill-opacity="0.5" stroke="#606060" stroke-width=".5" x="0" y="0" width="60" height="60"/>
  <use id="zoomplus" xlink:href="#zoomPlus" x="17" y="9" onmousedown="handleZoom(evt,'in')"/>
  <use id="zoomminus" xlink:href="#zoomMin" x="42" y="9" onmousedown="handleZoom(evt,'out')"/>
  <use id="reset" xlink:href="#resetDef" x="30" y="36" onmousedown="handleReset()"/>
   <use id="arrowup" xlink:href="#arrowUp" x="0" y="0" onmousedown="handlePan(0,-1)"/>
  <use id="arrowright" xlink:href="#arrowRight" x="0" y="0" onmousedown="handlePan(1,0)"/>
  <use id="arrowdown" xlink:href="#arrowDown" x="0" y="0" onmousedown="handlePan(0,1)"/>
  <use id="arrowleft" xlink:href="#arrowLeft" x="0" y="0" onmousedown="handlePan(-1,0)"/>
</g>
<svg viewBox="0 0 15 15" width="100%" height="30px" preserveAspectRatio="xMaxYMin meet">
 <g id="arrow_out" transform="scale(0.3 0.3)">
  <a xlink:href="playback_8h_a2d1cc0d6dc59d5968f46fc99271ee20a_icgraph_org.svg" target="_base">
   <rect id="button" ry="5" rx="5" y="6" x="6" height="38" width="38"
        fill="#f2f5e9" fill-opacity="0.5" stroke="#606060" stroke-width="1.0"/>
   <path id="arrow"
     d="M 11.500037,31.436501 C 11.940474,20.09759 22.043105,11.32322 32.158766,21.979434 L 37.068811,17.246167 C 37.068811,17.246167 37.088388,32 37.088388,32 L 22.160133,31.978069 C 22.160133,31.978069 26.997745,27.140456 26.997745,27.140456 C 18.528582,18.264221 13.291696,25.230495 11.500037,31.436501 z"
     style="fill:#404040;"/>
  </a>
 </g>
</svg>

<style type='text/css'>
<![CDATA[
[data-mouse-over-selected='false'] { opacity: 0.7; }
[data-mouse-over-selected='true']  { opacity: 1.0; }
]]>
</style>
<script type="application/ecmascript"><![CDATA[
document.addEventListener('DOMContentLoaded', (event) => {
  highlightEdges();
  highlightAdjacentNodes();
});
]]></script>
</svg>
