<?xml version="1.0" encoding="UTF-8" standalone="no"?>
<!DOCTYPE svg PUBLIC "-//W3C//DTD SVG 1.1//EN"
 "http://www.w3.org/Graphics/SVG/1.1/DTD/svg11.dtd">
<!-- Generated by graphviz version 2.43.0 (0)
 -->
<!-- Title: src/engine/objects/Snowman.h Pages: 1 -->
<!--zoomable 225 -->

<svg id="main" version="1.1" xmlns="http://www.w3.org/2000/svg" xmlns:xlink="http://www.w3.org/1999/xlink" xml:space="preserve" onload="init(evt)">
<style type="text/css"><![CDATA[
.node, .edge {opacity: 0.7;}
.node.selected, .edge.selected {opacity: 1;}
.edge:hover path { stroke: red; }
.edge:hover polygon { stroke: red; fill: red; }
]]></style>

<defs>
  <circle id="rim" cx="0" cy="0" r="7"/>
  <circle id="rim2" cx="0" cy="0" r="3.5"/>
  <g id="zoomPlus">
    <use xlink:href="#rim" fill="#404040"><set attributeName="fill" to="#808080" begin="zoomplus.mouseover" end="zoomplus.mouseout"/></use>
    <path d="M-4,0h8M0,-4v8" fill="none" stroke="white" stroke-width="1.5" pointer-events="none"/>
  </g>
  <g id="zoomMin">
    <use xlink:href="#rim" fill="#404040"><set attributeName="fill" to="#808080" begin="zoomminus.mouseover" end="zoomminus.mouseout"/></use>
    <path d="M-4,0h8" fill="none" stroke="white" stroke-width="1.5" pointer-events="none"/>
  </g>
  <g id="arrowUp" transform="translate(30 24)">
    <use xlink:href="#rim"/>
    <path pointer-events="none" fill="none" stroke="white" stroke-width="1.5" d="M0,-3.0v7 M-2.5,-0.5L0,-3.0L2.5,-0.5"/>
  </g>
  <g id="arrowRight" transform="rotate(90) translate(36 -43)">
    <use xlink:href="#rim"/>
    <path pointer-events="none" fill="none" stroke="white" stroke-width="1.5" d="M0,-3.0v7 M-2.5,-0.5L0,-3.0L2.5,-0.5"/>
  </g>
  <g id="arrowDown" transform="rotate(180) translate(-30 -48)">
    <use xlink:href="#rim"/>
    <path pointer-events="none" fill="none" stroke="white" stroke-width="1.5" d="M0,-3.0v7 M-2.5,-0.5L0,-3.0L2.5,-0.5"/>
  </g>
  <g id="arrowLeft" transform="rotate(270) translate(-36 17)">
    <use xlink:href="#rim"/>
    <path pointer-events="none" fill="none" stroke="white" stroke-width="1.5" d="M0,-3.0v7 M-2.5,-0.5L0,-3.0L2.5,-0.5"/>
  </g>
  <g id="resetDef">
    <use xlink:href="#rim2" fill="#404040"><set attributeName="fill" to="#808080" begin="reset.mouseover" end="reset.mouseout"/></use>
  </g>
</defs>
<script type="application/ecmascript">
var viewWidth = 1196;
var viewHeight = 225;
var sectionId = 'dynsection-1';
</script>
<script type="application/ecmascript" xlink:href="svg.min.js"/>
<svg id="graph" class="graph">
<g id="viewport">
<title>src/engine/objects/Snowman.h</title>
<!-- Node1 -->
<g id="Node000001" class="node">
<title>Node1</title>
<g id="a_Node000001"><a xlink:title=" ">
<polygon fill="#999999" stroke="#666666" points="736.5,-217 631.5,-217 631.5,-187 736.5,-187 736.5,-217"/>
<text text-anchor="start" x="639.5" y="-205" font-family="Helvetica,sans-Serif" font-size="10.00">src/engine/objects</text>
<text text-anchor="middle" x="684" y="-194" font-family="Helvetica,sans-Serif" font-size="10.00">/Snowman.h</text>
</a>
</g>
</g>
<!-- Node2 -->
<g id="Node000002" class="node">
<title>Node2</title>
<g id="a_Node000002"><a xlink:href="AllActors_8h.html" target="_top" xlink:title=" ">
<polygon fill="white" stroke="#666666" points="333,-145.5 211,-145.5 211,-126.5 333,-126.5 333,-145.5"/>
<text text-anchor="middle" x="272" y="-133.5" font-family="Helvetica,sans-Serif" font-size="10.00">src/engine/AllActors.h</text>
</a>
</g>
</g>
<!-- Node1&#45;&gt;Node2 -->
<g id="edge1_Node000001_Node000002" class="edge">
<title>Node1&#45;&gt;Node2</title>
<g id="a_edge1_Node000001_Node000002"><a xlink:title=" ">
<path fill="none" stroke="#63b8ff" d="M621.1,-192.72C552.56,-183.48 439.76,-167.62 343,-151 333.47,-149.36 323.24,-147.44 313.61,-145.56"/>
<polygon fill="#63b8ff" stroke="#63b8ff" points="620.92,-196.23 631.3,-194.09 621.85,-189.29 620.92,-196.23"/>
</a>
</g>
</g>
<!-- Node8 -->
<g id="Node000008" class="node">
<title>Node8</title>
<g id="a_Node000008"><a xlink:href="SceneManager_8cpp.html" target="_top" xlink:title=" ">
<polygon fill="white" stroke="#666666" points="544.5,-145.5 351.5,-145.5 351.5,-126.5 544.5,-126.5 544.5,-145.5"/>
<text text-anchor="middle" x="448" y="-133.5" font-family="Helvetica,sans-Serif" font-size="10.00">src/engine/editor/SceneManager.cpp</text>
</a>
</g>
</g>
<!-- Node1&#45;&gt;Node8 -->
<g id="edge8_Node000001_Node000008" class="edge">
<title>Node1&#45;&gt;Node8</title>
<g id="a_edge8_Node000001_Node000008"><a xlink:title=" ">
<path fill="none" stroke="#63b8ff" d="M622.37,-184.29C576.49,-171.84 515.76,-155.37 479.41,-145.52"/>
<polygon fill="#63b8ff" stroke="#63b8ff" points="621.64,-187.72 632.21,-186.95 623.47,-180.96 621.64,-187.72"/>
</a>
</g>
</g>
<!-- Node9 -->
<g id="Node000009" class="node">
<title>Node9</title>
<g id="a_Node000009"><a xlink:href="Snowman_8cpp.html" target="_top" xlink:title=" ">
<polygon fill="white" stroke="#666666" points="667.5,-151 562.5,-151 562.5,-121 667.5,-121 667.5,-151"/>
<text text-anchor="start" x="570.5" y="-139" font-family="Helvetica,sans-Serif" font-size="10.00">src/engine/objects</text>
<text text-anchor="middle" x="615" y="-128" font-family="Helvetica,sans-Serif" font-size="10.00">/Snowman.cpp</text>
</a>
</g>
</g>
<!-- Node1&#45;&gt;Node9 -->
<g id="edge9_Node000001_Node000009" class="edge">
<title>Node1&#45;&gt;Node9</title>
<g id="a_edge9_Node000001_Node000009"><a xlink:title=" ">
<path fill="none" stroke="#63b8ff" d="M661.28,-179.92C651.1,-170.49 639.37,-159.61 630.27,-151.16"/>
<polygon fill="#63b8ff" stroke="#63b8ff" points="658.97,-182.56 668.69,-186.8 663.74,-177.43 658.97,-182.56"/>
</a>
</g>
</g>
<!-- Node10 -->
<g id="Node000010" class="node">
<title>Node10</title>
<g id="a_Node000010"><a xlink:href="FrappeSnowland_8cpp.html" target="_top" xlink:title=" ">
<polygon fill="white" stroke="#666666" points="822,-151 686,-151 686,-121 822,-121 822,-151"/>
<text text-anchor="start" x="694" y="-139" font-family="Helvetica,sans-Serif" font-size="10.00">src/engine/tracks/Frappe</text>
<text text-anchor="middle" x="754" y="-128" font-family="Helvetica,sans-Serif" font-size="10.00">Snowland.cpp</text>
</a>
</g>
</g>
<!-- Node1&#45;&gt;Node10 -->
<g id="edge10_Node000001_Node000010" class="edge">
<title>Node1&#45;&gt;Node10</title>
<g id="a_edge10_Node000001_Node000010"><a xlink:title=" ">
<path fill="none" stroke="#63b8ff" d="M707.05,-179.92C717.37,-170.49 729.27,-159.61 738.51,-151.16"/>
<polygon fill="#63b8ff" stroke="#63b8ff" points="704.55,-177.47 699.54,-186.8 709.28,-182.63 704.55,-177.47"/>
</a>
</g>
</g>
<!-- Node11 -->
<g id="Node000011" class="node">
<title>Node11</title>
<g id="a_Node000011"><a xlink:href="Harbour_8cpp.html" target="_top" xlink:title=" ">
<polygon fill="white" stroke="#666666" points="1001.5,-145.5 840.5,-145.5 840.5,-126.5 1001.5,-126.5 1001.5,-145.5"/>
<text text-anchor="middle" x="921" y="-133.5" font-family="Helvetica,sans-Serif" font-size="10.00">src/engine/tracks/Harbour.cpp</text>
</a>
</g>
</g>
<!-- Node1&#45;&gt;Node11 -->
<g id="edge11_Node000001_Node000011" class="edge">
<title>Node1&#45;&gt;Node11</title>
<g id="a_edge11_Node000001_Node000011"><a xlink:title=" ">
<path fill="none" stroke="#63b8ff" d="M745.9,-184.29C791.97,-171.84 852.96,-155.37 889.46,-145.52"/>
<polygon fill="#63b8ff" stroke="#63b8ff" points="744.75,-180.97 736.01,-186.95 746.58,-187.73 744.75,-180.97"/>
</a>
</g>
</g>
<!-- Node12 -->
<g id="Node000012" class="node">
<title>Node12</title>
<g id="a_Node000012"><a xlink:href="TestTrack_8cpp.html" target="_top" xlink:title=" ">
<polygon fill="white" stroke="#666666" points="1188,-145.5 1020,-145.5 1020,-126.5 1188,-126.5 1188,-145.5"/>
<text text-anchor="middle" x="1104" y="-133.5" font-family="Helvetica,sans-Serif" font-size="10.00">src/engine/tracks/TestTrack.cpp</text>
</a>
</g>
</g>
<!-- Node1&#45;&gt;Node12 -->
<g id="edge12_Node000001_Node000012" class="edge">
<title>Node1&#45;&gt;Node12</title>
<g id="a_edge12_Node000001_Node000012"><a xlink:title=" ">
<path fill="none" stroke="#63b8ff" d="M746.91,-191.41C828.62,-178.96 970,-157.42 1048.11,-145.52"/>
<polygon fill="#63b8ff" stroke="#63b8ff" points="746.13,-187.99 736.77,-192.96 747.18,-194.91 746.13,-187.99"/>
</a>
</g>
</g>
<!-- Node3 -->
<g id="Node000003" class="node">
<title>Node3</title>
<g id="a_Node000003"><a xlink:href="RaceManager_8cpp.html" target="_top" xlink:title=" ">
<polygon fill="white" stroke="#666666" points="156,-79.5 0,-79.5 0,-60.5 156,-60.5 156,-79.5"/>
<text text-anchor="middle" x="78" y="-67.5" font-family="Helvetica,sans-Serif" font-size="10.00">src/engine/RaceManager.cpp</text>
</a>
</g>
</g>
<!-- Node2&#45;&gt;Node3 -->
<g id="edge2_Node000002_Node000003" class="edge">
<title>Node2&#45;&gt;Node3</title>
<g id="a_edge2_Node000002_Node000003"><a xlink:title=" ">
<path fill="none" stroke="#63b8ff" d="M236.12,-123.16C197.83,-110.53 138.09,-90.82 104.06,-79.6"/>
<polygon fill="#63b8ff" stroke="#63b8ff" points="235.24,-126.56 245.84,-126.37 237.44,-119.91 235.24,-126.56"/>
</a>
</g>
</g>
<!-- Node4 -->
<g id="Node000004" class="node">
<title>Node4</title>
<g id="a_Node000004"><a xlink:href="RegisterActors_8cpp.html" target="_top" xlink:title=" ">
<polygon fill="white" stroke="#666666" points="285.5,-85 174.5,-85 174.5,-55 285.5,-55 285.5,-85"/>
<text text-anchor="start" x="182.5" y="-73" font-family="Helvetica,sans-Serif" font-size="10.00">src/engine/registry</text>
<text text-anchor="middle" x="230" y="-62" font-family="Helvetica,sans-Serif" font-size="10.00">/RegisterActors.cpp</text>
</a>
</g>
</g>
<!-- Node2&#45;&gt;Node4 -->
<g id="edge3_Node000002_Node000004" class="edge">
<title>Node2&#45;&gt;Node4</title>
<g id="a_edge3_Node000002_Node000004"><a xlink:title=" ">
<path fill="none" stroke="#63b8ff" d="M260.79,-117.92C254.12,-107.76 245.75,-95.01 239.42,-85.36"/>
<polygon fill="#63b8ff" stroke="#63b8ff" points="257.92,-119.93 266.34,-126.37 263.78,-116.09 257.92,-119.93"/>
</a>
</g>
</g>
<!-- Node5 -->
<g id="Node000005" class="node">
<title>Node5</title>
<g id="a_Node000005"><a xlink:href="ContentBrowser_8cpp.html" target="_top" xlink:title=" ">
<polygon fill="white" stroke="#666666" points="397,-19 231,-19 231,0 397,0 397,-19"/>
<text text-anchor="middle" x="314" y="-7" font-family="Helvetica,sans-Serif" font-size="10.00">src/port/ui/ContentBrowser.cpp</text>
</a>
</g>
</g>
<!-- Node2&#45;&gt;Node5 -->
<g id="edge4_Node000002_Node000005" class="edge">
<title>Node2&#45;&gt;Node5</title>
<g id="a_edge4_Node000002_Node000005"><a xlink:title=" ">
<path fill="none" stroke="#63b8ff" d="M280.63,-117.19C284.99,-107.76 290.16,-95.91 294,-85 302.18,-61.76 308.93,-33.44 312.08,-19.35"/>
<polygon fill="#63b8ff" stroke="#63b8ff" points="277.42,-115.78 276.31,-126.31 283.75,-118.77 277.42,-115.78"/>
</a>
</g>
</g>
<!-- Node6 -->
<g id="Node000006" class="node">
<title>Node6</title>
<g id="a_Node000006"><a xlink:href="ContentBrowser_8h.html" target="_top" xlink:title=" ">
<polygon fill="white" stroke="#666666" points="497.5,-79.5 342.5,-79.5 342.5,-60.5 497.5,-60.5 497.5,-79.5"/>
<text text-anchor="middle" x="420" y="-67.5" font-family="Helvetica,sans-Serif" font-size="10.00">src/port/ui/ContentBrowser.h</text>
</a>
</g>
</g>
<!-- Node2&#45;&gt;Node6 -->
<g id="edge5_Node000002_Node000006" class="edge">
<title>Node2&#45;&gt;Node6</title>
<g id="a_edge5_Node000002_Node000006"><a xlink:title=" ">
<path fill="none" stroke="#63b8ff" d="M301.23,-122.36C330.4,-109.75 374.43,-90.71 399.88,-79.7"/>
<polygon fill="#63b8ff" stroke="#63b8ff" points="299.75,-119.19 291.96,-126.37 302.53,-125.61 299.75,-119.19"/>
</a>
</g>
</g>
<!-- Node6&#45;&gt;Node5 -->
<g id="edge6_Node000006_Node000005" class="edge">
<title>Node6&#45;&gt;Node5</title>
<g id="a_edge6_Node000006_Node000005"><a xlink:title=" ">
<path fill="none" stroke="#63b8ff" d="M395.4,-55.42C375.14,-44.24 347.03,-28.73 329.7,-19.17"/>
<polygon fill="#63b8ff" stroke="#63b8ff" points="393.91,-58.6 404.36,-60.37 397.3,-52.47 393.91,-58.6"/>
</a>
</g>
</g>
<!-- Node7 -->
<g id="Node000007" class="node">
<title>Node7</title>
<g id="a_Node000007"><a xlink:href="ImguiUI_8cpp.html" target="_top" xlink:title=" ">
<polygon fill="white" stroke="#666666" points="542.5,-19 415.5,-19 415.5,0 542.5,0 542.5,-19"/>
<text text-anchor="middle" x="479" y="-7" font-family="Helvetica,sans-Serif" font-size="10.00">src/port/ui/ImguiUI.cpp</text>
</a>
</g>
</g>
<!-- Node6&#45;&gt;Node7 -->
<g id="edge7_Node000006_Node000007" class="edge">
<title>Node6&#45;&gt;Node7</title>
<g id="a_edge7_Node000006_Node000007"><a xlink:title=" ">
<path fill="none" stroke="#63b8ff" d="M436.05,-53.09C447.06,-42.17 461.27,-28.08 470.26,-19.17"/>
<polygon fill="#63b8ff" stroke="#63b8ff" points="433.34,-50.84 428.71,-60.37 438.27,-55.81 433.34,-50.84"/>
</a>
</g>
</g>
</g>
</svg>

<g id="navigator" transform="translate(0 0)" fill="#404254">
  <rect fill="#f2f5e9" fill-opacity="0.5" stroke="#606060" stroke-width=".5" x="0" y="0" width="60" height="60"/>
  <use id="zoomplus" xlink:href="#zoomPlus" x="17" y="9" onmousedown="handleZoom(evt,'in')"/>
  <use id="zoomminus" xlink:href="#zoomMin" x="42" y="9" onmousedown="handleZoom(evt,'out')"/>
  <use id="reset" xlink:href="#resetDef" x="30" y="36" onmousedown="handleReset()"/>
   <use id="arrowup" xlink:href="#arrowUp" x="0" y="0" onmousedown="handlePan(0,-1)"/>
  <use id="arrowright" xlink:href="#arrowRight" x="0" y="0" onmousedown="handlePan(1,0)"/>
  <use id="arrowdown" xlink:href="#arrowDown" x="0" y="0" onmousedown="handlePan(0,1)"/>
  <use id="arrowleft" xlink:href="#arrowLeft" x="0" y="0" onmousedown="handlePan(-1,0)"/>
</g>
<svg viewBox="0 0 15 15" width="100%" height="30px" preserveAspectRatio="xMaxYMin meet">
 <g id="arrow_out" transform="scale(0.3 0.3)">
  <a xlink:href="Snowman_8h__dep__incl_org.svg" target="_base">
   <rect id="button" ry="5" rx="5" y="6" x="6" height="38" width="38"
        fill="#f2f5e9" fill-opacity="0.5" stroke="#606060" stroke-width="1.0"/>
   <path id="arrow"
     d="M 11.500037,31.436501 C 11.940474,20.09759 22.043105,11.32322 32.158766,21.979434 L 37.068811,17.246167 C 37.068811,17.246167 37.088388,32 37.088388,32 L 22.160133,31.978069 C 22.160133,31.978069 26.997745,27.140456 26.997745,27.140456 C 18.528582,18.264221 13.291696,25.230495 11.500037,31.436501 z"
     style="fill:#404040;"/>
  </a>
 </g>
</svg>

<style type='text/css'>
<![CDATA[
[data-mouse-over-selected='false'] { opacity: 0.7; }
[data-mouse-over-selected='true']  { opacity: 1.0; }
]]>
</style>
<script type="application/ecmascript"><![CDATA[
document.addEventListener('DOMContentLoaded', (event) => {
  highlightEdges();
  highlightAdjacentNodes();
});
]]></script>
</svg>
